<?xml version="1.0" encoding="UTF-8"?>
<!-- A simple aesthetic SVG logo: open book with rising arrow to symbolize continuous learning -->
<svg xmlns="http://www.w3.org/2000/svg" viewBox="0 0 64 64" width="64" height="64" aria-hidden="true">
  <defs>
    <linearGradient id="g1" x1="0" x2="1" y1="0" y2="1">
      <stop offset="0%" stop-color="#0d6efd"/>
      <stop offset="100%" stop-color="#6f42c1"/>
    </linearGradient>
  </defs>
  <g fill="none" fill-rule="evenodd">
    <path d="M6 20c6-4 14-6 22-6s16 2 22 6v24c-6-4-14-6-22-6S12 40 6 44V20z" fill="#fff" stroke="url(#g1)" stroke-width="2"/>
    <path d="M6 20c6-4 14-6 22-6s16 2 22 6" stroke="url(#g1)" stroke-width="1.6" opacity="0.4"/>
    <path d="M18 28c4-2 8-3 12-3s8 1 12 3" stroke="#0d6efd" stroke-width="1.8" stroke-linecap="round"/>
    <path d="M33 22l6-6 6 6" stroke="url(#g1)" stroke-width="2.4" stroke-linecap="round" stroke-linejoin="round"/>
    <circle cx="33" cy="22" r="1.6" fill="url(#g1)"/>
  </g>
</svg>
